<svg width="25" height="25" viewBox="0 0 25 25" fill="none" xmlns="http://www.w3.org/2000/svg">
<path d="M20.8643 7.0459L15.6104 1.79199C15.4639 1.64551 15.2661 1.5625 15.0586 1.5625H4.6875C4.25537 1.5625 3.90625 1.91162 3.90625 2.34375V22.6562C3.90625 23.0884 4.25537 23.4375 4.6875 23.4375H20.3125C20.7446 23.4375 21.0938 23.0884 21.0938 22.6562V7.6001C21.0938 7.39258 21.0107 7.19238 20.8643 7.0459ZM19.292 7.95898H14.6973V3.36426L19.292 7.95898ZM19.3359 21.6797H5.66406V3.32031H13.0371V8.59375C13.0371 8.8657 13.1451 9.12651 13.3374 9.31881C13.5297 9.51111 13.7905 9.61914 14.0625 9.61914H19.3359V21.6797ZM13.2812 11.5234C13.2812 11.416 13.1934 11.3281 13.0859 11.3281H11.9141C11.8066 11.3281 11.7188 11.416 11.7188 11.5234V14.1602H9.08203C8.97461 14.1602 8.88672 14.248 8.88672 14.3555V15.5273C8.88672 15.6348 8.97461 15.7227 9.08203 15.7227H11.7188V18.3594C11.7188 18.4668 11.8066 18.5547 11.9141 18.5547H13.0859C13.1934 18.5547 13.2812 18.4668 13.2812 18.3594V15.7227H15.918C16.0254 15.7227 16.1133 15.6348 16.1133 15.5273V14.3555C16.1133 14.248 16.0254 14.1602 15.918 14.1602H13.2812V11.5234Z" fill="white"/>
</svg>
