<svg width="25" height="25" viewBox="0 0 25 25" fill="none" xmlns="http://www.w3.org/2000/svg">
<path fill-rule="evenodd" clip-rule="evenodd" d="M7.81251 17.9687C7.81251 17.7615 7.89482 17.5628 8.04133 17.4163C8.18785 17.2698 8.38656 17.1875 8.59376 17.1875H22.6563C22.8635 17.1875 23.0622 17.2698 23.2087 17.4163C23.3552 17.5628 23.4375 17.7615 23.4375 17.9687C23.4375 18.1759 23.3552 18.3747 23.2087 18.5212C23.0622 18.6677 22.8635 18.75 22.6563 18.75H8.59376C8.38656 18.75 8.18785 18.6677 8.04133 18.5212C7.89482 18.3747 7.81251 18.1759 7.81251 17.9687ZM7.81251 11.7187C7.81251 11.5115 7.89482 11.3128 8.04133 11.1663C8.18785 11.0198 8.38656 10.9375 8.59376 10.9375H22.6563C22.8635 10.9375 23.0622 11.0198 23.2087 11.1663C23.3552 11.3128 23.4375 11.5115 23.4375 11.7187C23.4375 11.9259 23.3552 12.1247 23.2087 12.2712C23.0622 12.4177 22.8635 12.5 22.6563 12.5H8.59376C8.38656 12.5 8.18785 12.4177 8.04133 12.2712C7.89482 12.1247 7.81251 11.9259 7.81251 11.7187ZM7.81251 5.46874C7.81251 5.26154 7.89482 5.06283 8.04133 4.91632C8.18785 4.7698 8.38656 4.68749 8.59376 4.68749H22.6563C22.8635 4.68749 23.0622 4.7698 23.2087 4.91632C23.3552 5.06283 23.4375 5.26154 23.4375 5.46874C23.4375 5.67594 23.3552 5.87466 23.2087 6.02117C23.0622 6.16768 22.8635 6.24999 22.6563 6.24999H8.59376C8.38656 6.24999 8.18785 6.16768 8.04133 6.02117C7.89482 5.87466 7.81251 5.67594 7.81251 5.46874ZM6.02189 3.35312C6.09464 3.42569 6.15236 3.5119 6.19175 3.60682C6.23113 3.70173 6.25141 3.80348 6.25141 3.90624C6.25141 4.009 6.23113 4.11076 6.19175 4.20567C6.15236 4.30058 6.09464 4.3868 6.02189 4.45937L3.67814 6.80312C3.60556 6.87587 3.51935 6.9336 3.42444 6.97298C3.32952 7.01237 3.22777 7.03264 3.12501 7.03264C3.02225 7.03264 2.9205 7.01237 2.82558 6.97298C2.73067 6.9336 2.64446 6.87587 2.57189 6.80312L1.79064 6.02187C1.718 5.94923 1.66038 5.863 1.62107 5.76809C1.58176 5.67319 1.56152 5.57147 1.56152 5.46874C1.56152 5.36602 1.58176 5.2643 1.62107 5.16939C1.66038 5.07449 1.718 4.98826 1.79064 4.91562C1.86327 4.84298 1.94951 4.78536 2.04441 4.74605C2.13932 4.70674 2.24104 4.68651 2.34376 4.68651C2.44649 4.68651 2.5482 4.70674 2.64311 4.74605C2.73801 4.78536 2.82425 4.84298 2.89689 4.91562L3.12501 5.14531L4.91564 3.35312C4.98821 3.28036 5.07442 3.22264 5.16933 3.18325C5.26425 3.14387 5.366 3.1236 5.46876 3.1236C5.57152 3.1236 5.67327 3.14387 5.76819 3.18325C5.8631 3.22264 5.94931 3.28036 6.02189 3.35312V3.35312ZM6.02189 9.60312C6.09464 9.67569 6.15236 9.7619 6.19175 9.85682C6.23113 9.95173 6.25141 10.0535 6.25141 10.1562C6.25141 10.259 6.23113 10.3608 6.19175 10.4557C6.15236 10.5506 6.09464 10.6368 6.02189 10.7094L3.67814 13.0531C3.60556 13.1259 3.51935 13.1836 3.42444 13.223C3.32952 13.2624 3.22777 13.2826 3.12501 13.2826C3.02225 13.2826 2.9205 13.2624 2.82558 13.223C2.73067 13.1836 2.64446 13.1259 2.57189 13.0531L1.79064 12.2719C1.64394 12.1252 1.56152 11.9262 1.56152 11.7187C1.56152 11.5113 1.64394 11.3123 1.79064 11.1656C1.93733 11.0189 2.1363 10.9365 2.34376 10.9365C2.55122 10.9365 2.75019 11.0189 2.89689 11.1656L3.12501 11.3953L4.91564 9.60312C4.98821 9.53036 5.07442 9.47264 5.16933 9.43325C5.26425 9.39387 5.366 9.3736 5.46876 9.3736C5.57152 9.3736 5.67327 9.39387 5.76819 9.43325C5.8631 9.47264 5.94931 9.53036 6.02189 9.60312V9.60312ZM6.02189 15.8531C6.09464 15.9257 6.15236 16.0119 6.19175 16.1068C6.23113 16.2017 6.25141 16.3035 6.25141 16.4062C6.25141 16.509 6.23113 16.6108 6.19175 16.7057C6.15236 16.8006 6.09464 16.8868 6.02189 16.9594L3.67814 19.3031C3.60556 19.3759 3.51935 19.4336 3.42444 19.473C3.32952 19.5124 3.22777 19.5326 3.12501 19.5326C3.02225 19.5326 2.9205 19.5124 2.82558 19.473C2.73067 19.4336 2.64446 19.3759 2.57189 19.3031L1.79064 18.5219C1.64394 18.3752 1.56152 18.1762 1.56152 17.9687C1.56152 17.7613 1.64394 17.5623 1.79064 17.4156C1.93733 17.2689 2.1363 17.1865 2.34376 17.1865C2.55122 17.1865 2.75019 17.2689 2.89689 17.4156L3.12501 17.6453L4.91564 15.8531C4.98821 15.7804 5.07442 15.7226 5.16933 15.6833C5.26425 15.6439 5.366 15.6236 5.46876 15.6236C5.57152 15.6236 5.67327 15.6439 5.76819 15.6833C5.8631 15.7226 5.94931 15.7804 6.02189 15.8531V15.8531Z" fill="white"/>
</svg>
