<svg width="23" height="19" viewBox="0 0 23 19" fill="none" xmlns="http://www.w3.org/2000/svg">
<path d="M20.875 0.90625H2.125C1.71073 0.906664 1.31354 1.07142 1.0206 1.36435C0.727667 1.65729 0.562914 2.05448 0.5625 2.46875V16.5312C0.562914 16.9455 0.727667 17.3427 1.0206 17.6356C1.31354 17.9286 1.71073 18.0933 2.125 18.0938H20.875C21.2893 18.0933 21.6865 17.9286 21.9794 17.6356C22.2723 17.3427 22.4371 16.9455 22.4375 16.5312V2.46875C22.4371 2.05448 22.2723 1.65729 21.9794 1.36435C21.6865 1.07142 21.2893 0.906664 20.875 0.90625ZM2.125 2.46875H10.7188V16.5312H2.125V2.46875ZM12.2812 16.5312V2.46875H20.875V16.5312H12.2812Z" fill="white"/>
</svg>
