<svg width="25" height="26" viewBox="0 0 25 26" fill="none" xmlns="http://www.w3.org/2000/svg">
<path d="M13.3086 1.59208C13.0409 1.57231 12.7725 1.56241 12.504 1.56239V0C12.8111 0.00014972 13.118 0.011615 13.4242 0.0343726L13.3086 1.59208ZM16.4397 2.29515C15.9388 2.10189 15.4245 1.94575 14.9007 1.828L15.2429 0.303104C15.8413 0.437469 16.4303 0.615582 17.0021 0.837441L16.4397 2.29515V2.29515ZM18.5801 3.40445C18.3568 3.25547 18.128 3.11476 17.8942 2.9826L18.6645 1.62332C19.1987 1.92601 19.7099 2.26753 20.1941 2.64513L19.2332 3.87785C19.0214 3.7126 18.8036 3.55521 18.5801 3.40601V3.40445ZM21.4456 6.20113C21.1365 5.76206 20.7955 5.34638 20.4253 4.95746L21.5565 3.87942C21.9783 4.3247 22.3689 4.80123 22.7236 5.30119L21.4456 6.20113V6.20113ZM22.608 8.31348C22.5054 8.06578 22.3939 7.82188 22.2736 7.58228L23.6688 6.8792C23.9448 7.42774 24.1798 7.99591 24.3719 8.57909L22.8876 9.06811C22.8037 8.81323 22.7104 8.56152 22.608 8.31348V8.31348ZM23.436 12.2304C23.4234 11.6935 23.3712 11.1582 23.2798 10.6289L24.8188 10.3633C24.9234 10.9664 24.9844 11.5789 25 12.1913L23.4376 12.2304H23.436ZM23.2314 14.6333C23.2829 14.3677 23.3251 14.1037 23.3579 13.8365L24.9094 14.0287C24.8343 14.6383 24.7142 15.2414 24.55 15.8333L23.0439 15.4161C23.1158 15.1583 23.1782 14.8974 23.2314 14.6333V14.6333ZM21.744 18.3503C22.0315 17.8972 22.2846 17.4222 22.5033 16.9316L23.9313 17.5644C23.6813 18.1269 23.3923 18.6674 23.0642 19.1862L21.744 18.3503ZM20.2378 20.233C20.4284 20.0423 20.6112 19.8455 20.7847 19.6424L21.969 20.6626C21.7684 20.8951 21.5594 21.1203 21.3424 21.3376L20.2378 20.233V20.233Z" fill="white"/>
<path d="M12.504 1.56239C10.7055 1.56252 8.93479 2.00618 7.34871 2.85408C5.76262 3.70198 4.41011 4.92794 3.41098 6.42338C2.41185 7.91882 1.79693 9.63757 1.6207 11.4274C1.44446 13.2173 1.71234 15.0229 2.40061 16.6845C3.08889 18.3461 4.17631 19.8123 5.56656 20.9533C6.95682 22.0943 8.60699 22.8748 10.3709 23.2257C12.1349 23.5766 13.9581 23.4871 15.6792 22.965C17.4003 22.443 18.966 21.5046 20.2378 20.233L21.3424 21.3376C19.889 22.7918 18.0993 23.8651 16.1319 24.4623C14.1646 25.0596 12.0802 25.1623 10.0636 24.7615C8.04706 24.3607 6.16048 23.4686 4.57104 22.1644C2.98161 20.8602 1.73841 19.1841 0.951587 17.2846C0.164766 15.385 -0.141381 13.3208 0.0602737 11.2746C0.261928 9.22851 0.965156 7.26371 2.10765 5.55433C3.25015 3.84494 4.79663 2.44375 6.61008 1.4749C8.42354 0.506051 10.448 -0.000544856 12.504 4.39748e-07V1.56239Z" fill="white"/>
<path d="M11.7228 4.68716C11.93 4.68716 12.1287 4.76947 12.2752 4.91597C12.4217 5.06247 12.504 5.26117 12.504 5.46836V13.6084L17.5786 16.5082C17.7533 16.6136 17.8798 16.7831 17.9311 16.9805C17.9825 17.1779 17.9546 17.3876 17.8534 17.5647C17.7522 17.7418 17.5857 17.8723 17.3896 17.9283C17.1934 17.9843 16.9831 17.9613 16.8037 17.8644L11.3353 14.7396C11.2157 14.6713 11.1164 14.5726 11.0472 14.4535C10.9781 14.3344 10.9416 14.1992 10.9416 14.0615V5.46836C10.9416 5.26117 11.0239 5.06247 11.1704 4.91597C11.3169 4.76947 11.5156 4.68716 11.7228 4.68716V4.68716Z" fill="white"/>
</svg>
